<?xml version="1.0" standalone="no"?><!DOCTYPE svg PUBLIC "-//W3C//DTD SVG 1.1//EN" "http://www.w3.org/Graphics/SVG/1.1/DTD/svg11.dtd"><svg class="icon" width="200px" height="200.00px" viewBox="0 0 1024 1024" version="1.1" xmlns="http://www.w3.org/2000/svg"><path fill="#333333" d="M512 0a113.778 113.778 0 0 0-113.778 113.778A113.778 113.778 0 0 0 512 227.556a113.778 113.778 0 0 0 113.778-113.778A113.778 113.778 0 0 0 512 0zM398.222 910.222A113.778 113.778 0 0 0 512 1024a113.778 113.778 0 0 0 113.778-113.778A113.778 113.778 0 0 0 512 796.444a113.778 113.778 0 0 0-113.778 113.778z m0-398.222A113.778 113.778 0 0 0 512 625.778 113.778 113.778 0 0 0 625.778 512 113.778 113.778 0 0 0 512 398.222 113.778 113.778 0 0 0 398.222 512z" /></svg>